<?xml version="1.0" ?><!DOCTYPE svg  PUBLIC '-//W3C//DTD SVG 1.1//EN'  'http://www.w3.org/Graphics/SVG/1.1/DTD/svg11.dtd'><svg enable-background="new 0 0 300 300" height="210px" id="Layer_1" version="1.1" viewBox="0 0 300 300" width="210px" xml:space="preserve" xmlns="http://www.w3.org/2000/svg" xmlns:xlink="http://www.w3.org/1999/xlink"><g><path d="   M231,188v13c0,5.523-4.727,10-10.25,10h-171c-5.523,0-9.75-4.477-9.75-10V100c0-5.523,4.227-10,9.75-10h171   c5.523,0,10.25,4.477,10.25,10v60" fill="none" stroke="#004b49" stroke-linecap="round" stroke-linejoin="round" stroke-miterlimit="10" stroke-width="6"/><path d="   M231,122.627c0-2.003-1.624-3.627-3.627-3.627H43.627c-2.003,0-3.627,1.624-3.627,3.627v23.746c0,2.003,1.624,3.627,3.627,3.627   h183.746c2.003,0,3.627-1.624,3.627-3.627V122.627z" fill="none" stroke="#004b49" stroke-linecap="round" stroke-linejoin="round" stroke-miterlimit="10" stroke-width="6"/><line fill="none" stroke="#004b49" stroke-linecap="round" stroke-linejoin="round" stroke-miterlimit="10" stroke-width="6" x1="54" x2="80" y1="189" y2="189"/><polyline fill="none" points="   198.307,163.167 187.231,174.243 198.307,185.319  " stroke="#004b49" stroke-linecap="round" stroke-linejoin="round" stroke-miterlimit="10" stroke-width="6"/><path d="   M188.356,174.625c0,0,56.593-0.067,56.816-0.076c8.512-0.34,14.828-7.188,14.828-15.799v-2c0-8.836-6.414-15.75-15.25-15.75H243" fill="none" stroke="#004b49" stroke-linecap="round" stroke-linejoin="round" stroke-miterlimit="10" stroke-width="6"/></g></svg>